# AST/ASF file generated using VICON BodyLanguage
# -----------------------------------------------
:version 1.10
:name VICON
:units
  mass 1.0
  length 0.45
  angle deg
:documentation
   .ast/.asf automatically generated from VICON data using
   VICON BodyBuilder and BodyLanguage model FoxedUp or BRILLIANT.MOD
:root
   order TX TY TZ RX RY RZ
   axis XYZ
   position 0 0 0  
   orientation 0 0 0 
:bonedata
  begin
     id 1 
     name lhipjoint
     direction 0.610259 -0.730986 0.305356 
     length 2.50941 
     axis 0 0 0  XYZ
  end
  begin
     id 2 
     name lfemur
     direction 0.34202 -0.939693 0  
     length 7.48822  
     axis 0 0 20  XYZ
    dof rx ry rz
    limits (-160.0 20.0)
           (-70.0 70.0)
           (-60.0 70.0)
  end
  begin
     id 3 
     name ltibia
     direction 0.34202 -0.939693 0   
     length 7.60141   
     axis 0 0 20   XYZ
    dof rx
    limits (-10.0 170.0)
  end
  begin
     id 4 
     name lfoot
     direction 0.0673488 -0.185039 0.980421   
     length 2.04049   
     axis -90 7.62852e-016 20   XYZ
    dof rx rz
    limits (-45.0 90.0)
           (-70.0 20.0)
  end
  begin
     id 5 
     name ltoes
     direction 1.5356e-011 -4.21729e-011 1   
     length 1.02897   
     axis -90 7.62852e-016 20   XYZ
    dof rx
    limits (-90.0 20.0)
  end
  begin
     id 6 
     name rhipjoint
     direction -0.57612 -0.754205 0.315056   
     length 2.43216  
     axis 0 0 0  XYZ 
  end
  begin
     id 7 
     name rfemur
     direction -0.34202 -0.939693 0   
     length 7.42799   
     axis 0 0 -20   XYZ
    dof rx ry rz
    limits (-160.0 20.0)
           (-70.0 70.0)
           (-70.0 60.0)
  end
  begin
     id 8 
     name rtibia
     direction -0.34202 -0.939693 0   
     length 7.69484   
     axis 0 0 -20   XYZ
    dof rx
    limits (-10.0 170.0)
 end
 begin
     id 9 
     name rfoot
     direction -0.111837 -0.30727 0.945028   
     length 2.15769  
     axis -90 -7.62852e-016 -20   XYZ
    dof rx rz
    limits (-45.0 90.0)
           (-20.0 70.0)
  end
  begin
     id 10 
     name rtoes
     direction -1.53539e-011 -4.21878e-011 1   
     length 1.07391   
     axis -90 -7.62852e-016 -20   XYZ
    dof rx
    limits (-90.0 20.0)
  end
  begin
     id 11 
     name lowerback
     direction 0.00552624 0.990109 -0.140195   
     length 2.12403   
     axis 0 0 0   XYZ
    dof rx ry rz
    limits (-20.0 45.0)
           (-30.0 30.0)
           (-30.0 30.0)
  end
  begin
     id 12 
     name upperback
     direction 0.00361898 0.999976 -0.00584723   
     length 2.13232   
     axis 0 0 0   XYZ
    dof rx ry rz
    limits (-20.0 45.0)
           (-30.0 30.0)
           (-30.0 30.0)
  end
  begin
     id 13 
     name thorax
     direction -0.000331275 0.998253 0.0590847   
     length 2.17688   
     axis 0 0 0   XYZ
    dof rx ry rz
    limits (-20.0 45.0)
           (-30.0 30.0)
           (-30.0 30.0)
  end
  begin
     id 14 
     name lowerneck
     direction -0.0561561 0.979832 0.19177   
     length 1.64159   
     axis 0 0 0   XYZ
    dof rx ry rz
    limits (-20.0 45.0)
           (-30.0 30.0)
           (-30.0 30.0)
  end
  begin
     id 15 
     name upperneck
     direction 0.0827153 0.979385 -0.184293   
     length 1.68939   
     axis 0 0 0   XYZ
    dof rx ry rz
    limits (-20.0 45.0)
           (-30.0 30.0)
           (-30.0 30.0)
  end
  begin
     id 16
     name head
     direction 0.0278583 0.995936 -0.0856488  
     length 1.70207  
     axis 0 0 0   XYZ
    dof rx ry rz
    limits (-20.0 45.0)
           (-30.0 30.0)
           (-30.0 30.0)
  end
  begin
     id 17 
     name lclavicle
     direction 0.950993 0.301131 -0.0702275  
     length 3.41652  
     axis 0 0 0   XYZ
    dof ry rz
    limits (-20.0 10.0)
           (0.0 20.0)
  end
  begin
     id 18 
     name lhumerus
     direction 1 -4.48981e-011 -3.9662e-029   
     length 5.32955   
     axis 180 -30 -90   XYZ
    dof rx ry rz
    limits (-60.0 90.0)
           (-90.0 90.0)
           (-90.0 90.0)
  end
  begin
     id 19
     name lradius
     direction 1 -4.48925e-011 -9.0549e-027   
     length 3.69232   
     axis 180 -30 -90   XYZ
    dof rx
    limits (-10.0 170.0)
  end
  begin
     id 20
     name lwrist
     direction 1 -4.49007e-011 -1.49005e-026   
     length 1.84616   
     axis 9.0955e-015 90 90   XYZ
    dof ry
    limits (-180.0 0.0)
 end
  begin
     id 21 
     name lhand
     direction 1 -4.49016e-011 -2.98023e-026   
     length 0.536598   
     axis 1.90115e-014 90 90   XYZ
    dof rx rz
    limits (-90.0 90.0)
           (-45.0 45.0)
  end
  begin
     id 22 
     name lfingers
     direction 1 -4.48924e-011 -5.9578e-026   
     length 0.432619   
     axis 3.80223e-014 90 90   XYZ
    dof rx
    limits (0.0 90.0)
  end
  begin
     id 23
     name lthumb
     direction 0.707107 -6.34947e-011 0.707107   
     length 0.621157   
     axis -90 45 -3.84942e-014   XYZ
    dof rx rz
    limits (-45.0 45.0)
           (-45.0 45.0)
  end
  begin
     id 24 
     name rclavicle
     direction -0.955495 0.276497 -0.102848   
     length 3.36357  
     axis 0 0 0   XYZ 
    dof ry rz
    limits (-10.0 20.0)
           (-20.0 0.0)
  end
  begin
     id 25 
     name rhumerus
     direction -1 -4.48961e-011 3.30983e-027  
     length 5.23431   
     axis 180 30 90   XYZ
    dof rx ry rz
    limits (-90.0 60.0)
           (-90.0 90.0)
           (-90.0 90.0)
  end
  begin
     id 26 
     name rradius
     direction -1 -4.48965e-011 -6.63263e-027   
     length 3.55301   
     axis 180 30 90   XYZ
    dof rx
    limits (-10.0 170.0)
  end
  begin
     id 27 
     name rwrist
     direction -1 -4.48942e-011 -1.48958e-026   
     length 1.77651   
     axis 9.0955e-015 -90 -90   XYZ
    dof ry
    limits (-180.0 0.0)
  end
  begin
     id 28
     name rhand
     direction -1 -4.48977e-011 -2.97966e-026   
     length 0.772522   
     axis 1.90115e-014 -90 -90   XYZ
    dof rx rz
    limits (-90.0 90.0)
           (-45.0 45.0)
  end
  begin
     id 29
     name rfingers
     direction -1 -4.49135e-011 -5.96389e-026   
     length 0.622827   
     axis 3.80223e-014 -90 -90   XYZ
    dof rx
    limits (0.0 90.0)
  end
  begin
     id 30
     name rthumb
     direction -0.707107 -6.34969e-011 0.707107   
     length 0.894259   
     axis -90 -45 3.84942e-014   XYZ
    dof rx rz
    limits (-45.0 45.0)
           (-45.0 45.0)
  end
:hierarchy
  begin
    root lhipjoint rhipjoint lowerback
    lhipjoint lfemur
    lfemur ltibia
    ltibia lfoot
    lfoot ltoes
    rhipjoint rfemur
    rfemur rtibia
    rtibia rfoot
    rfoot rtoes
    lowerback upperback
    upperback thorax
    thorax lowerneck lclavicle rclavicle
    lowerneck upperneck
    upperneck head
    lclavicle lhumerus
    lhumerus lradius
    lradius lwrist
    lwrist lhand lthumb
    lhand lfingers
    rclavicle rhumerus
    rhumerus rradius
    rradius rwrist
    rwrist rhand rthumb
    rhand rfingers
  end

#!OML:ASF F:\VICON\USERDATA\INSTALL\rory3\rory3.ASF
:FULLY-SPECIFIED
:DEGREES
17
root -11.608 17.9985 -9.83721 175.532 11.9555 179.239
lowerback 13.0138 -3.37741 1.48125
upperback 2.54467 -3.59436 4.34099
thorax -4.41713 -1.58198 4.30948
lowerneck 6.9749 -25.4282 -16.0526
upperneck 31.5098 -36.3361 13.7637
head 16.0378 -15.8939 2.49077
rclavicle 4.73108e-014 1.59028e-015
rhumerus -19.5194 -3.07703 -84.9002
rradius 30.9168
rwrist 5.21541
rhand -14.9009 5.70252
rfingers 7.12502
rthumb 11.2603 -23.9752
lclavicle 4.73108e-014 1.59028e-015
lhumerus -39.0416 11.8166 81.1066
lradius 25.7393
lwrist -5.3992
lhand -21.7745 24.9334
lfingers 7.12502
lthumb 4.62655 54.8628
rfemur 0.568856 3.23437 23.0437
rtibia 27.2232
rfoot -14.1961 1.89224
rtoes 5.21674
lfemur -16.3824 1.07696 -15.8472
ltibia 50.0621
lfoot -9.50545 -6.23837
ltoes -17.559
18
root -11.6061 18.0158 -9.72203 175.402 11.837 179.135
lowerback 13.0123 -3.48854 1.30022
upperback 2.45216 -3.77228 4.34775
thorax -4.48994 -1.67061 4.45194
lowerneck 7.0965 -25.4067 -16.1746
upperneck 31.5065 -36.3025 13.7224
head 16.0218 -15.9025 2.50875
rclavicle -3.93594e-014 -5.24792e-014
rhumerus -20.2016 -3.65067 -84.4922
rradius 30.9869
rwrist 5.13925
rhand -14.8965 6.40609
rfingers 7.12502
rthumb 11.2646 -23.2714
lclavicle -3.93594e-014 -5.24792e-014
lhumerus -38.9884 11.695 81.4677
lradius 25.8637
lwrist -5.28323
lhand -21.097 25.5875
lfingers 7.12502
lthumb 5.2807 55.5017
rfemur 0.180568 3.17572 23.0132
rtibia 27.3628
rfoot -13.9496 1.84527
rtoes 6.49041
lfemur -15.697 1.34246 -15.9066
ltibia 51.4298
lfoot -8.98343 -6.54792
ltoes -17.435
19
root -11.607 18.0298 -9.60448 175.374 11.7961 179.103
lowerback 12.9432 -3.59153 1.22942
upperback 2.35093 -3.92927 4.34226
thorax -4.54382 -1.75102 4.51165
lowerneck 7.07297 -25.3996 -16.1411
upperneck 31.5582 -36.2721 13.6124
head 16.0045 -15.8896 2.47451
rclavicle -9.34288e-015 -3.18055e-014
rhumerus -20.8834 -4.03873 -84.1388
rradius 31.1201
rwrist 4.91238
rhand -14.967 6.70785
rfingers 7.12502
rthumb 11.1966 -22.9734
lclavicle -9.34288e-015 -3.18055e-014
lhumerus -38.9081 11.7117 81.6613
lradius 25.9921
lwrist -5.37139
lhand -21.7681 25.073
lfingers 7.12502
lthumb 4.63267 55.0024
rfemur -0.34117 3.09925 23.0501
rtibia 27.521
rfoot -13.8841 1.767
rtoes 3.83519
lfemur -15.0262 1.70635 -15.883
ltibia 52.6009
lfoot -8.60611 -6.88337
ltoes -18.6239
20
root -11.6135 18.0385 -9.48793 175.466 11.8139 179.163
lowerback 12.7046 -3.73531 1.24013
upperback 2.30739 -4.12937 4.3853
thorax -4.44296 -1.85325 4.56782
lowerneck 6.91882 -25.3421 -16.1296
upperneck 31.5829 -36.1924 13.5511
head 16.0078 -15.8513 2.45223
rclavicle -9.14409e-015 3.02153e-014
rhumerus -21.5012 -4.03094 -83.8586
rradius 31.3714
rwrist 4.39063
rhand -14.9928 7.0111
rfingers 7.12502
rthumb 11.1717 -22.6715
lclavicle -9.14409e-015 3.02153e-014
lhumerus -38.6652 11.7907 81.9191
lradius 26.1029
lwrist -5.34032
lhand -24.5807 23.2471
lfingers 7.12502
lthumb 1.91657 53.2183
rfemur -0.953954 2.85462 23.1208
rtibia 27.609
rfoot -14.0799 1.85133
rtoes 0.265086
lfemur -14.3453 2.22184 -15.7541
ltibia 53.6227
lfoot -8.43066 -7.33021
ltoes -20.2463
21
root -11.6174 18.0528 -9.37772 175.459 11.8201 179.243
lowerback 12.5235 -3.83364 1.31003
upperback 2.27397 -4.25967 4.40123
thorax -4.37405 -1.92089 4.55381
lowerneck 6.97392 -25.3058 -16.2576
upperneck 31.5486 -36.1729 13.622
head 16.0273 -15.8543 2.49635
rclavicle 1.64991e-014 -9.54166e-015
rhumerus -22.0918 -4.31221 -83.4938
rradius 31.4629
rwrist 4.01483
rhand -14.9201 7.36007
rfingers 7.12502
rthumb 11.2418 -22.3187
lclavicle 1.64991e-014 -9.54166e-015
lhumerus -38.3783 11.6245 82.257
lradius 26.1854
lwrist -5.17883
lhand -22.9106 23.7009
lfingers 7.12502
lthumb 3.52946 53.6514
rfemur -1.34174 2.64353 23.2276
rtibia 27.5722
rfoot -14.0621 1.96744
rtoes -0.528615
lfemur -13.4951 2.68645 -15.5828
ltibia 54.5198
lfoot -7.86711 -8.08542
ltoes -20.285
